<?xml version="1.0" encoding="iso-8859-1"?>
<!-- Generator: Adobe Illustrator 16.0.0, SVG Export Plug-In . SVG Version: 6.00 Build 0)  -->
<!DOCTYPE svg PUBLIC "-//W3C//DTD SVG 1.1//EN" "http://www.w3.org/Graphics/SVG/1.1/DTD/svg11.dtd">
<svg xmlns="http://www.w3.org/2000/svg">
    <symbol viewBox="0 0 97.75 97.75" id="facebook" >
<g>
	<path 
    d="M48.875,0C21.882,0,0,21.882,0,48.875S21.882,97.75,48.875,97.75S97.75,75.868,97.75,48.875S75.868,0,48.875,0z
		 M67.521,24.89l-6.76,0.003c-5.301,0-6.326,2.519-6.326,6.215v8.15h12.641L67.07,52.023H54.436v32.758H41.251V52.023H30.229V39.258
		h11.022v-9.414c0-10.925,6.675-16.875,16.42-16.875l9.851,0.015V24.89L67.521,24.89z"/>
</g>
<g>
</g>
<g>
</g>
<g>
</g>
<g>
</g>
<g>
</g>
<g>
</g>
<g>
</g>
<g>
</g>
<g>
</g>
<g>
</g>
<g>
</g>
<g>
</g>
<g>
</g>
<g>
</g>
<g>
</g>
 </symbol>

 <symbol viewBox="0 0 97.75 97.75" id="twitter">
 <g>
	<path d="M48.875,0C21.882,0,0,21.882,0,48.875S21.882,97.75,48.875,97.75S97.75,75.868,97.75,48.875S75.868,0,48.875,0z
		 M78.43,35.841c0.023,0.577,0.035,1.155,0.035,1.736c0,20.878-15.887,42.473-42.473,42.473c-8.127,0-16.04-2.319-22.883-6.708
		c-0.143-0.091-0.202-0.268-0.145-0.427c0.057-0.158,0.218-0.256,0.383-0.237c1.148,0.137,2.322,0.205,3.487,0.205
		c6.323,0,12.309-1.955,17.372-5.664c-6.069-0.512-11.285-4.619-13.161-10.478c-0.039-0.122-0.011-0.255,0.073-0.351
		c0.085-0.096,0.215-0.138,0.339-0.115c1.682,0.319,3.392,0.34,5.04,0.072c-6.259-1.945-10.658-7.808-10.658-14.483l0.002-0.194
		c0.003-0.127,0.072-0.243,0.182-0.306c0.109-0.064,0.245-0.065,0.355-0.003c1.632,0.906,3.438,1.488,5.291,1.711
		c-3.597-2.867-5.709-7.213-5.709-11.862c0-2.682,0.71-5.318,2.054-7.623c0.06-0.103,0.166-0.169,0.284-0.178
		c0.119-0.012,0.234,0.04,0.309,0.132c7.362,9.03,18.191,14.59,29.771,15.305c-0.193-0.972-0.291-1.974-0.291-2.985
		c0-8.361,6.802-15.162,15.162-15.162c4.11,0,8.082,1.689,10.929,4.641c3.209-0.654,6.266-1.834,9.09-3.508
		c0.129-0.077,0.291-0.065,0.41,0.028c0.116,0.094,0.164,0.25,0.118,0.394c-0.957,2.993-2.823,5.604-5.33,7.489
		c2.361-0.411,4.652-1.105,6.831-2.072c0.146-0.067,0.319-0.025,0.424,0.098c0.104,0.124,0.113,0.301,0.023,0.435
		C83.759,31.175,81.299,33.744,78.43,35.841z"/>
</g>
<g>
</g>
<g>
</g>
<g>
</g>
<g>
</g>
<g>
</g>
<g>
</g>
<g>
</g>
<g>
</g>
<g>
</g>
<g>
</g>
<g>
</g>
<g>
</g>
<g>
</g>
<g>
</g>
<g>
</g>
 </symbol>

 <symbol viewBox="0 0 97.75 97.75" id="linkedin">
 <g>
	<path d="M48.875,0C21.882,0,0,21.882,0,48.875S21.882,97.75,48.875,97.75S97.75,75.868,97.75,48.875S75.868,0,48.875,0z
		 M30.562,81.966h-13.74V37.758h13.74V81.966z M23.695,31.715c-4.404,0-7.969-3.57-7.969-7.968c0.001-4.394,3.565-7.964,7.969-7.964
		c4.392,0,7.962,3.57,7.962,7.964C31.657,28.146,28.086,31.715,23.695,31.715z M82.023,81.966H68.294V60.467
		c0-5.127-0.095-11.721-7.142-11.721c-7.146,0-8.245,5.584-8.245,11.35v21.869H39.179V37.758h13.178v6.041h0.185
		c1.835-3.476,6.315-7.14,13-7.14c13.913,0,16.481,9.156,16.481,21.059V81.966z"/>
</g>
<g>
</g>
<g>
</g>
<g>
</g>
<g>
</g>
<g>
</g>
<g>
</g>
<g>
</g>
<g>
</g>
<g>
</g>
<g>
</g>
<g>
</g>
<g>
</g>
<g>
</g>
<g>
</g>
<g>
</g>
</symbol>
 <symbol viewBox="0 0 97.75 97.75" id="googlePlus">
 <g>
	<g>
		<path d="M50.729,33.67c0-6.775-4.039-17.311-11.826-17.311c-2.448,0-5.071,1.222-6.577,3.105
			c-1.598,1.979-2.062,4.511-2.062,6.965c0,6.3,3.658,16.741,11.736,16.741c2.345,0,4.872-1.123,6.382-2.63
			C50.541,38.369,50.729,35.365,50.729,33.67z"/>
		<path d="M45.657,58.414c-0.748-0.094-1.218-0.094-2.156-0.094c-0.847,0-5.918,0.185-9.859,1.511
			c-2.064,0.748-8.071,3.008-8.071,9.687c0,6.682,6.478,11.485,16.522,11.485c9.015,0,13.804-4.338,13.804-10.163
			C55.896,66.027,52.798,63.496,45.657,58.414z"/>
		<path d="M48.875,0C21.882,0,0,21.882,0,48.875S21.882,97.75,48.875,97.75S97.75,75.868,97.75,48.875S75.868,0,48.875,0z
			 M37.489,84.945c-13.616,0-20.184-6.488-20.184-13.455c0-3.385,1.687-8.18,7.227-11.475c5.818-3.576,13.709-4.043,17.936-4.334
			c-1.319-1.692-2.816-3.479-2.816-6.395c0-1.597,0.47-2.539,0.934-3.669c-1.034,0.096-2.062,0.188-3.002,0.188
			c-9.948,0-15.581-7.438-15.581-14.775c0-4.322,1.969-9.124,6.005-12.605c5.354-4.422,12.67-5.622,17.744-5.622H64.25l-6.105,3.836
			h-5.816c2.158,1.786,6.658,5.549,6.658,12.703c0,6.957-3.938,10.259-7.879,13.36c-1.223,1.221-2.632,2.538-2.632,4.611
			c0,2.065,1.41,3.193,2.44,4.047l3.383,2.628c4.132,3.479,7.888,6.679,7.886,13.177C62.184,76.012,53.635,84.945,37.489,84.945z
			 M78.005,47.725v9.464h-4.646v-9.464h-9.393v-4.697h9.393v-9.406h4.646v9.406h9.438v4.697H78.005z"/>
	</g>
</g>
<g>
</g>
<g>
</g>
<g>
</g>
<g>
</g>
<g>
</g>
<g>
</g>
<g>
</g>
<g>
</g>
<g>
</g>
<g>
</g>
<g>
</g>
<g>
</g>
<g>
</g>
<g>
</g>
<g>
</g>
 </symbol>
 <symbol viewBox="0 0 97.75 97.75" id="behance">
 <g>
	<g>
		<path d="M39.337,38.729c0-4.611-3.137-4.611-3.137-4.611h-1.661H23.294v9.894H35.4C37.492,44.011,39.337,43.342,39.337,38.729z"/>
		<path d="M36.201,50.846H23.294v11.85h12.311c1.852-0.053,5.27-0.633,5.27-5.76C40.875,50.784,36.201,50.846,36.201,50.846z"/>
		<path d="M69.243,44.011c-6.849,0-7.804,6.835-7.804,6.835h14.565C76.005,50.846,76.092,44.011,69.243,44.011z"/>
		<path d="M48.875,0C21.882,0,0,21.883,0,48.875S21.882,97.75,48.875,97.75S97.75,75.867,97.75,48.875S75.868,0,48.875,0z
			 M59.531,28.848h18.294v5.46H59.531V28.848z M50.285,57.486c0,13.533-14.084,13.088-14.084,13.088H23.294h-0.379h-9.787V26.236
			h9.787h0.379H36.2c7.012,0,12.547,3.871,12.547,11.805c0,7.935-6.766,8.438-6.766,8.438C50.9,46.479,50.285,57.486,50.285,57.486z
			 M69.33,64.479c7.37,0,7.109-4.77,7.109-4.77h7.803c0,12.659-15.172,11.792-15.172,11.792c-18.207,0-17.036-16.95-17.036-16.95
			S52.02,37.517,69.068,37.517c17.947,0,15.434,19.245,15.434,19.245H61.527C61.527,65.001,69.33,64.479,69.33,64.479z"/>
	</g>
</g>
<g>
</g>
<g>
</g>
<g>
</g>
<g>
</g>
<g>
</g>
<g>
</g>
<g>
</g>
<g>
</g>
<g>
</g>
<g>
</g>
<g>
</g>
<g>
</g>
<g>
</g>
<g>
</g>
<g>
</g>
 </symbol>
</svg>
